# xmcd CD database file
#
# Track frame offsets:
#	187
#	17185
#	34285
#	67355
#	80782
#	94375
#	106655
#	125937
#	145935
#
# Disc length: 2093 seconds
#
# Revision: 0
# Processed by: cddbd v1.5.2PL0 Copyright (c) Steve Scherf et al.
# Submitted via: CDex 1.70beta3
#
DISCID=8a082b09
DTITLE=Trudy Pitts and Mr. C - Bucketful Of Soul
DYEAR=1968
DGENRE=Jazz
TTITLE0=Bucket Full Of Soul
TTITLE1=My Waltz
TTITLE2=Love For Sale
TTITLE3=Satin Doll
TTITLE4=The Shadow Of Your Smile
TTITLE5=Renaissance
TTITLE6=Lil' Darlin'
TTITLE7=Come Dawn
TTITLE8=Please Keep My Dream
EXTD=YEAR: 1968
EXTT0=
EXTT1=
EXTT2=
EXTT3=
EXTT4=
EXTT5=
EXTT6=
EXTT7=
EXTT8=
PLAYORDER=
